<svg xmlns="http://www.w3.org/2000/svg" viewBox="0 0 280.52 277.95"><g id="Laag_1" data-name="Laag 1"><path d="M96.26,159.62h0a3.41,3.41,0,0,0,0-.34c.47-3.81,3.9-5.47,7.53-6.66a12.51,12.51,0,0,1,5.39-.55c1,.24,2.13.4,3.14.73a15,15,0,0,1,9.17,8.61c.55,1.3.95,2.68,1.44,4,.26.74.22,1.42.8,1.83.36.29,1.26.18,1.89.18,1.27,0,4.89,0,5.21-.82.48-.73-.45-3.43-.63-4a34.28,34.28,0,0,0-1.07-3.94,41.15,41.15,0,0,0-3.33-5.67c-2-3.17-4.31-5.78-6.47-8.7-.72-.7-1.33-1.4-2-2.1a25.91,25.91,0,0,0-4-3.94l-.9-1a21,21,0,0,0-2.15-1.83l-.54-.64c-4.51-3.46-9.27-6.4-17.17-6.41-.51.31-1.62,0-2.24.18a35.27,35.27,0,0,0-4.13.92c-3.38,1.29-7.58,5.83-9,9.15a22.23,22.23,0,0,0-1,3.76,18.24,18.24,0,0,0,.45,8,15,15,0,0,0,1.08,3.39,37.76,37.76,0,0,0,3,3.66c2.22,3,5.25,5.12,8.36,7.23,1.55,1.06,3.16,2.12,4.76,3.21.76.51,1.44,1.31,2.61,1.37.65,0,.3-.46.18-1-1.09-1.83-.69-6.44-.44-8.21,0-.23,0-.32.05-.35M123,182.56c-1.12,2.76-3,5.66-5.67,6.86a18.5,18.5,0,0,1-3.41.92,18.64,18.64,0,0,1-5.48-.37,3.81,3.81,0,0,0-1.62-.18s-.09,0-.11.42a12.36,12.36,0,0,0,5,4.34,13.18,13.18,0,0,0,2.34.64,11.26,11.26,0,0,0,5.48-.46c4.43-1.46,6.8-5,8.81-9,.81-1.59,2.67-5.73,2.24-8a23.53,23.53,0,0,0-5.48-.55c-.1.06-.08.05-.27.09a9.11,9.11,0,0,0-.55,1.13c-.59,1.39-.69,2.81-1.24,4.18M220.54,124c.63,2,1.23,5.88.54,8.51a40.61,40.61,0,0,1-1.8,5.86c-1.08,2.54-2.93,4.66-4.49,6.78-1.09,1.49-2.64,2.55-3.14,4.67-.27,1.14.62,2.14,1,2.74a45.43,45.43,0,0,1,3.41,5.68,20.17,20.17,0,0,1,.72,11.26,27.22,27.22,0,0,1-1.89,5.78,13.37,13.37,0,0,1-3.23,4.29c-1.35,1-2.61,2.28-4.05,3.21a20.25,20.25,0,0,1-15.27,2.65c-.54,0-2.45-.39-3-.42a21.34,21.34,0,0,1-3.66-1c-3.87-1.62-7.42-3.59-11.23-5.22a19.82,19.82,0,0,0-4.77-1.28c-1.22-.19-1.93-.2-3.77-.37-1-.09-3.1.23-3.32.82-.25.42.07,1.11.18,1.47A18.86,18.86,0,0,0,164.2,183c1.55,3,2.67,4.42,5.84,5.77.67.28,2.39,1.06,3.42.82,2.23-.51,3.6-1.22,6.2-1.14a4.2,4.2,0,0,1-.63,4.71c-1.64,2.29-6.4,5.69-11,4.58a18,18,0,0,1-10.43-7.32c-.85-1.19-1.57-2.57-2.33-3.85-.3-.5-.35-1.14-.9-1.37s-.88.6-1.08,1a5.49,5.49,0,0,0-.09,4.48,49.65,49.65,0,0,0,5.66,10.07,22.18,22.18,0,0,1,2.78,3.74,39.14,39.14,0,0,1-4.57,4.05c-.72.51-1.69.79-1.71,2,2.57,1.7,8.55,3.75,12.67,2.38a12.11,12.11,0,0,0,3.32-2.11c1.49-1.14,2.06-4,3.42-5a2.78,2.78,0,0,1,4.22,1.56c.56,2.28-1.55,5.23-2.34,6.31-3.57,4.9-11.79,7.75-19.4,5.22a24.28,24.28,0,0,1-5.49-2.47c-.93-.61-1.51-1.79-3-1.83-.57.38-.33.21-.84.54s-1.52,1-1.88,1.26c-.67.48-1,.66-1.71,1.14s0,0-2.15,1.59a24.48,24.48,0,0,1-2.95-1.78c-1.31-.94-2.64-2.47-4.67-2.84a21,21,0,0,1-5.66,3.2c-1.37.52-2.66.6-4.13,1a13.47,13.47,0,0,1-6.47.09c-2.69-.82-5.35-1.53-7.37-3a20.4,20.4,0,0,1-2.16-2.2,11.7,11.7,0,0,1-3.41-5,4.33,4.33,0,0,1-.36-2.29A2.64,2.64,0,0,1,108,204a2.53,2.53,0,0,1,1.26.18c1.84,1.1,2.61,3.42,3.87,5.13s3.88,2.72,6.2,3.39,6.16-.41,8-1.1c.83-.32,2.1-.38,2.16-1.47-2-1.84-4.3-3.31-6.2-5.22,0-1.6,1.71-3.3,2.43-4.39a81.25,81.25,0,0,0,4.67-8.79c.92-1.87,2.21-4.36.54-6.23-.16.06-.09,0-.18.1-.53.39-1.26,2.83-1.71,3.57-1.8,2.95-3.75,6-7.09,7.31a17.52,17.52,0,0,1-5.13.93c-5.23.25-8.27-1.2-10.42-4.12-1.07-1.46-2.25-2.52-1.62-5,.18-.38.18-.38.54-.46a18.75,18.75,0,0,1,5.23.59,19.39,19.39,0,0,0,2,.06c4.8,0,7-2.8,8.44-6.23.49-1.15,1.62-2.95,1-4.58-1.26-.83-4-.75-6-.55a26.62,26.62,0,0,0-11.5,3.85c-3.87,2.41-8.08,3.84-14.38,3.84a22.73,22.73,0,0,1-5.66-.36,28.79,28.79,0,0,1-8.62-4.31,22.9,22.9,0,0,1-8.18-12.26c0-.89-.42-1.76-.42-2.64a23.43,23.43,0,0,1,.78-6.25,22.22,22.22,0,0,1,2.79-5c.42-.7.61-1.47,1-2.2a7.31,7.31,0,0,0,.81-4.58c-.52-2.05-2.06-3.2-3.14-4.67a42.88,42.88,0,0,1-3.51-5.67,21.21,21.21,0,0,1-2.24-7.33,27.2,27.2,0,0,1,.41-6.86,22.53,22.53,0,0,1,1.11-2.93,15.58,15.58,0,0,1,8.72-9.16,25.63,25.63,0,0,1,13.39-1,43.87,43.87,0,0,1,12.94,5.13c.8.5,1.64.78,2.42,1.28,1.88,1.21,3.78,2.44,5.57,3.76.57.41,2.13,2.1,3.15,1.83.19,0,.39-.22.63-.28a1.83,1.83,0,0,0,.36-.82c-.22-.29-.25-.68-.45-1-.58-.94-1.32-1.85-2-2.74l-.63-.55c-1.16-1.57-2.72-2.84-3.86-4.4-3.71-5-7.18-9.68-9.53-16.2A64.52,64.52,0,0,1,94.39,89a30.28,30.28,0,0,1,.18-9.52l.09-1.37a28.37,28.37,0,0,1,1-3.48A17.57,17.57,0,0,1,106.7,64c1.24-.42,2.65-.51,4-.82a21.55,21.55,0,0,1,6.83.18c1.07.27,2,.23,3,.55A39.81,39.81,0,0,1,132,70.22c2.88,2.15,4.61,4.94,8.71,6H142c2.51,0,3.65-1,5.12-2s2.81-2.11,4.22-3.2l2.25-2.38a25.5,25.5,0,0,1,5.12-3.48,32.89,32.89,0,0,1,5.39-1.65c.8-.2,2.65-.08,3.24-.46,10.22-.16,15.23,2.14,19.5,8.06.5.69,1.15,1.36,1.61,2.11A27.26,27.26,0,0,1,190,75.56c.23.45.55,1.6.72,2.07a9,9,0,0,1,.43,2.55,43,43,0,0,1-.26,5.34c0,1-.26,2.18-.26,3.19-.32,1.43-.22,3-.63,4.3-1.9,6.37-5,11.31-8.26,16.3l0,.06c-.6.79-3.06,3.76-3.55,4.43a42.12,42.12,0,0,1-3,3.84c-.9,1-2.85,2.31-2.52,4.12,1.18.79,1.86-.12,2.79-.64,2.16-1.23,4.13-2.72,6.2-4a60.77,60.77,0,0,1,13.29-6.32,26.32,26.32,0,0,1,2.7-.54c.51,0,.89-.2,1.4-.2a25.63,25.63,0,0,1,10.55.84,23,23,0,0,1,3.33,2c4.35,2.8,6,5.58,7.72,11.08m-12,27c1-3.15.22-7.5-.63-10.16-2.45-7.67-7.54-12-17.52-12a9.27,9.27,0,0,0-3.15.45,27.2,27.2,0,0,0-6.56,2.47c-1.83,1.14-3.59,2.39-5.3,3.67-.75.56-1.41,1.36-2.16,1.92a55,55,0,0,0-15.45,18.31c-.66,1.3-1.4,2.65-2,4-.43,1-.54,2-.9,3.11a8,8,0,0,0-.63,4.21c1.74,1.06,4.6,1,6.83.46.79-1.27,1-2.93,1.62-4.48a20.13,20.13,0,0,1,2.07-4c2.2-3.13,5.93-4.5,10.24-5.5,4.13-.95,9.78.6,11.5,2.93a15.47,15.47,0,0,1,3.24,6.41c.33,1.42-.16,3.08-.27,4.21-.07.7-.35,1.45.09,1.83s2.66-.61,3.23-.91a40.18,40.18,0,0,0,8.09-5.4A25,25,0,0,0,208.52,151m-30.19,39.49c-.11-.27-.11-.27-.46-.19-1.72,1.43-5.78,2-8.34.94-3.43-1.48-6-4.8-7.7-8.11a18.47,18.47,0,0,1-1.19-3.12c-.2-.67-.09-1.64-.46-2.17a1.84,1.84,0,0,0-1.46-.47c-.62,0-1.17.09-1.66.09a15.87,15.87,0,0,0-2.84.29,3.18,3.18,0,0,0-.08,1.17c.17.6.22,1,.45,1.66a46.82,46.82,0,0,0,2.25,5.51,20.37,20.37,0,0,0,9.39,9.3,10.11,10.11,0,0,0,8.15-.56c.73-.45,1.56-1.11,2.22-1.62a3.57,3.57,0,0,0,1.73-2.72M168.44,130a22.24,22.24,0,0,0,1.17-7.79l-.09-2.38c-.39-1.65-.56-3.36-1.08-4.94a40.74,40.74,0,0,0-3.41-8.15,49.64,49.64,0,0,0-15.19-16A31.58,31.58,0,0,1,147.18,88c-.48-.65-.72-.94-1.2-1.59-1-1.39-2.15-2.79-3.06-4.22-.33-.51-.3-.62-.67,0s-.83.94-1.3,1.57c-1,1.27-1.86,2.49-2.79,3.75-.42.4-.54.84-1,1.24a18.62,18.62,0,0,1-1.91,2c-.27.31-1,.8-1.26,1.11-6.43,4.94-12.67,9.84-16.09,17.85a44.34,44.34,0,0,0-1.79,6.23l-.18,2.74c-.65,2.93.14,8.22.81,10.62a37.8,37.8,0,0,0,1.52,5c1.88,4.36,4.81,8,7.37,11.72,1.61,2.34,3,4.86,4.49,7.32A37.78,37.78,0,0,1,133.4,161c.57,1.79.79,4,1.26,5.68a6.14,6.14,0,0,0,3,.09c.54-1,.43-.7.43-2.16.06,0-.77-23.2,4.37-69.8,0,0,.05-.07.06,0,3.86,29.9,4,30,4.13,70.13l.27,1.65.27.18c.55.45,1.9.1,2.51,0,.14-.19.41-.27.54-.46.38-.55.3-1.28.54-2,.41-1.29.7-2.66,1.17-3.94a54.29,54.29,0,0,1,4-9.06c1.36-2.27,2.79-4.48,4.32-6.59.73-1,1.78-1.88,2.51-2.93A40.55,40.55,0,0,0,168.44,130m-9.71,74.25c.24-.79-.55-1.53-.8-1.93-1-1.57-2.08-3.09-3.06-4.67-.37-.59-.54-1.22-.9-1.83A27.58,27.58,0,0,1,151.9,192c-1.62-4-2-9.37-3.05-13.92a.92.92,0,0,0-.72-.55c-.47,0-1.34-.23-1.76.48a10.52,10.52,0,0,0-.85,3.64c-.21,1.37-2.09,16.5-3.42,16.62-1.2-1.12-2.39-11.67-2.93-14.73.1.41.14.55,0-.29,0-.05,0-.12-.05-.2a.5.5,0,0,0,0-.12c-.31-1.33-.25-4.8-1.26-5.21-.35-.32-1.13-.29-1.8-.28-.2,0-.25,0-.45.09-.33,1.25-.12,1.17-.36,3.85a17.79,17.79,0,0,1-.36,2.84,55.68,55.68,0,0,1-1.44,5.58,57.28,57.28,0,0,1-5.21,10.35,24.17,24.17,0,0,0-2.42,4c.49.37.92.91,1.43,1.28,3.46,2.48,6.81,5,10.25,7.5a17,17,0,0,0,4.94,3.3,31,31,0,0,0,3.33-2.11c3-2.11,5.94-4.37,8.9-6.5.84-.6,3.88-2.52,4.13-3.38m-.91-31.73c.09-.75,0-1-.2-1.34-.16-.11-.08,0-.41-.06-3.93-.12-3.32-.11-4.36-.11H142.17a25.76,25.76,0,0,1-3.83,0h-7.55a11.84,11.84,0,0,0-3.59.19,1.06,1.06,0,0,1-.18.27,6.33,6.33,0,0,0,.09,1.37,1.35,1.35,0,0,0,.36.19c.41.31,1.46.18,2.15.18h5.49l14.28-.09c2.59,0,5.81.31,8.09-.19a.43.43,0,0,0,.34-.41" transform="translate(-0.98 1.11)" fill="#fff"/><path d="M239,142.37c.11,2.49.39,6-.09,8.33l-.27.09c-.35.23-1,0-1.26-.18-.82-.42-2.61-1.08-2.79-2.11a6,6,0,0,1-.08-2.11,28,28,0,0,1,.26-5.67,1.45,1.45,0,0,0,.36-.28,5.35,5.35,0,0,1,3.87,1.93" transform="translate(-0.98 1.11)" fill="#fff"/><path d="M237.81,129.36c1.53,1,1.62,7.3,1.08,9.89a2.07,2.07,0,0,1-1.08.19c-.94-.66-2.42-.52-3.06-1.47a5.52,5.52,0,0,1-.44-1.83c-.17-.71-.2-1.78-.36-2.56V132a6.75,6.75,0,0,1-.09-2.47,4.7,4.7,0,0,1,.54-.37c.37-.13.87,0,1.16-.18a4.12,4.12,0,0,1,2.25.36" transform="translate(-0.98 1.11)" fill="#fff"/><path d="M236.64,152.34c2.12,1.19,2.53,2,1.8,4.95-.35,1.43-.15,4.49-1.8,4.48-1-.75-2.29-1.07-3-2.1-.87-1.32-.12-4.9.27-6.23.23-.8.2-1.3.63-1.83a3.38,3.38,0,0,1,2.06.73" transform="translate(-0.98 1.11)" fill="#fff"/><path d="M237.09,121c.49,1.81,1.19,4.16.72,6a2.1,2.1,0,0,1-.72.18,4.79,4.79,0,0,1-3-.18c-.79-.42-.94-1.29-1.26-2.2-.54-1.51-1.68-5.37-1.26-7a3.54,3.54,0,0,0,.81-.28c1.23.41,2.67,0,3.59.64s.79,1.76,1.08,2.84" transform="translate(-0.98 1.11)" fill="#fff"/><path d="M236.55,164.7c.34,1.27-.36,3.36-.63,4.22-.36,1.16-.06,3.13-1.61,3.11-.92-.87-2.24-1.42-2.79-2.66-.81-1.82.46-6.69,1.53-7.78a6.45,6.45,0,0,1,3.5,3.11" transform="translate(-0.98 1.11)" fill="#fff"/><path d="M233.59,174.32c.41,1.71-.9,4.22-1.35,5.31-.38.9-.6,2.81-1.71,2.93-.92-1-2.32-2.31-2.69-3.76a4.27,4.27,0,0,1,.45-2.28,17.08,17.08,0,0,1,2-5.13.92.92,0,0,1,.54.09,5.12,5.12,0,0,1,2.79,2.84" transform="translate(-0.98 1.11)" fill="#fff"/><path d="M229.45,105a4.43,4.43,0,0,1,2.25.28c.71.48,1,1.52,1.35,2.38.72,1.7,1.35,3.4,2,5.31a4.37,4.37,0,0,1,.45,2.28c-1,.65-3.14.7-4.58.37-1.25-2-1.78-4.69-2.78-7-.36-.85-1.11-2-.72-3a6.66,6.66,0,0,1,.81-.37c.44-.12.92,0,1.25-.18" transform="translate(-0.98 1.11)" fill="#fff"/><path d="M228,96.31c.79,1.31,2.73,4.26,2.78,6a7.07,7.07,0,0,1-4.85.54,43,43,0,0,1-2.7-4.85,6.26,6.26,0,0,1-1.16-3.11,8.18,8.18,0,0,1,1.88-1c.33-.1.82,0,1.08-.18a2.65,2.65,0,0,1,1.71.55,7.07,7.07,0,0,1,1.26,2" transform="translate(-0.98 1.11)" fill="#fff"/><path d="M226.67,181.28c1,.35,3.32,2.54,2.87,4.21a17.45,17.45,0,0,1-2.06,4.12c-.46.75-.76,2.17-1.62,2.47a.63.63,0,0,1-.36.09c-.7-.73-2.71-3-2.25-4.76a18.49,18.49,0,0,1,1.62-3.48c.39-.76.72-2.17,1.53-2.47.07-.06.2-.12.27-.18" transform="translate(-0.98 1.11)" fill="#fff"/><path d="M224,89.17c.3.49,1.42,1.68,1.17,2.29-.06.38-.13.44-.45.55a4.74,4.74,0,0,1-1.53.46,4.51,4.51,0,0,1-1.79.46c-1.8-.29-2.92-3.09-3.87-4.4-.71-1-2.1-1.9-2.15-3.48.07-.09,0,0,.09-.18a3.93,3.93,0,0,1,.89-.46c.64-.17,1.49,0,2-.27,3.21,0,4.42,3,5.66,5" transform="translate(-0.98 1.11)" fill="#fff"/><path d="M224.24,194.09c.16.78-.46,1.58-.72,2-.74,1.25-1.36,2.36-2.15,3.48-.53.74-1.14,2.1-2.25,1.92a12.62,12.62,0,0,1-.54-1.37,11.35,11.35,0,0,1-1.17-2.48c-.15-.82.53-1.63.81-2.1a24.3,24.3,0,0,1,3.6-5.22c.92.12,1,.81,1.43,1.47a7.61,7.61,0,0,1,1,2.28" transform="translate(-0.98 1.11)" fill="#fff"/><path d="M218.31,81.66a2.53,2.53,0,0,0-.18.37c-.5.24-3.6,1.19-4.31,1s-1.43-1.09-2-1.65a27.73,27.73,0,0,1-2.69-2.84,16,16,0,0,0-1.26-1.65,3,3,0,0,1,.09-.73,9.29,9.29,0,0,1,1.89-.82c.5-.14,1.14,0,1.52-.28,2.16,0,4.64,3.1,5.66,4.49.46.62,1.18,1.1,1.26,2.1" transform="translate(-0.98 1.11)" fill="#fff"/><path d="M216.06,199.4c1,.34,2.16,2.91,1.62,4.58s-2.15,3-3.32,4.21h-.63a9.51,9.51,0,0,1-1.53-3.2,2.67,2.67,0,0,1,.36-1.65,11.11,11.11,0,0,1,2.88-4,1.21,1.21,0,0,1,.62.09" transform="translate(-0.98 1.11)" fill="#fff"/><path d="M212.38,209.29c.11.71-.46,1.27-.72,1.65-.62.93-2.69,3.5-3.86,3.66-.1-.07,0,0-.18-.09-.24-.52-.3-1.16-.54-1.74s-.67-.82-.81-1.28a2.59,2.59,0,0,1,.54-2.11c.55-.9,1.09-1.64,1.71-2.47a17.23,17.23,0,0,1,1.61-1.46h.45a10.64,10.64,0,0,1,1.8,3.84" transform="translate(-0.98 1.11)" fill="#fff"/><path d="M209.06,71c.57.59,1.64,1.15,1.7,2.2-.78.5-3.91,1.58-5.21,1.1s-2.16-1.75-3.23-2.57a37.85,37.85,0,0,1-3.42-3c.1-1.6,2.74-1.63,3.78-2.38,2.39,0,5,3.32,6.38,4.67" transform="translate(-0.98 1.11)" fill="#fff"/><path d="M206.36,215.61c-.21.23-.26.56-.45.82a15.42,15.42,0,0,1-3.41,3c-.55.41-.94,1-1.8,1.1-.09-.07,0,0-.18-.09a12.28,12.28,0,0,1-.63-1.74c-1.29-4.4,2.31-5.27,4.31-7.23a3.27,3.27,0,0,1,.63.09,7.07,7.07,0,0,1,1.53,4" transform="translate(-0.98 1.11)" fill="#fff"/><path d="M199.35,62.62c.7.5,2,1,2,2.11-.54.35-1.25.4-1.89.73a6.69,6.69,0,0,1-1.08.64c-2.53.78-5.52-1.72-6.92-2.66-.78-.52-2.43-1-2.6-2.1a17.16,17.16,0,0,1,2.25-1.92c.39-.26.89-.35,1.25-.64,2.89-.07,5.22,2.56,7,3.84" transform="translate(-0.98 1.11)" fill="#fff"/><path d="M197.91,217.35c.38.66,1.49,2.65,1.17,3.84-.44,1.64-3.22,3.08-4.58,3.94a3.25,3.25,0,0,1-1.8.83,3.63,3.63,0,0,1-.27-.28c-.31-.43,0-1.17-.18-1.83a4.87,4.87,0,0,1-.27-2.29c.6-1.92,3.7-3,5-4.3a1.15,1.15,0,0,1,.89.09" transform="translate(-0.98 1.11)" fill="#fff"/><path d="M196.3,142.18a1.26,1.26,0,0,1,.18.73,6.33,6.33,0,0,0-1.53,3,5.7,5.7,0,0,1,1.26,3l-.18.09c-.94.71-2.37-.72-3.69-.37s-1.58,1.53-3,1.56c-.49-.89-.43-2.45-1-3.3s-2.22-1-2.25-2.65a7.3,7.3,0,0,1,1.08-.73c.72-.31,1.56-.34,2-.92.56-.77.68-2.13,1.17-2.93,1.41.08,1.84,1.66,2.78,2.29s2.14,0,3.15.18" transform="translate(-0.98 1.11)" fill="#fff"/><path d="M191.18,57.4c.12.21,0,.3,0,.55-.39.2-.88.31-1.26.55a9.21,9.21,0,0,1-2.52,1.56,3.51,3.51,0,0,1-2.42-.55c-1.28-.55-2.44-1.13-3.6-1.65-.78-.35-2.7-.9-3-1.65-.08-.11-.08-.15-.09-.36a34.54,34.54,0,0,1,2.51-2.48,9.3,9.3,0,0,0,1-.64,5.92,5.92,0,0,1,3,1.1c1.54.82,3.14,1.49,4.58,2.38.57.36,1.54.53,1.8,1.19" transform="translate(-0.98 1.11)" fill="#fff"/><path d="M190.28,221.93c.72,1.15.63,4.09.27,5.49-1.61,1-3.31,1.92-5,2.84-.43.23-1.45,1-2,.73-.28-.05-.22,0-.36-.18-.38-.52-.31-2.88-.09-3.57,1-3.19,4.55-3.3,6.65-5.31Z" transform="translate(-0.98 1.11)" fill="#fff"/><path d="M181.92,227.6c.33,4.65-2.06,5-5.21,6.32-1,.42-2.84,1.43-4,1a4,4,0,0,1,.26-2.66c.39-1.29.68-2.42,1.62-3.11a15.78,15.78,0,0,1,3.24-1.37c.28-.13.61-.43.9-.55a7,7,0,0,0,1.34-.46l1.17.09a6.22,6.22,0,0,0,.63.73" transform="translate(-0.98 1.11)" fill="#fff"/><path d="M181.73,109.31a1.52,1.52,0,0,1,.18-.23c0,.09-.57.82-.23.29l0-.06" transform="translate(-0.98 1.11)" fill="#fff"/><path d="M179.13,51.36c.17.19.18.35.18.73-.83.94-1.42,2.28-2.69,2.75-2.06.77-5-1-6.47-1.47-1.06-.35-3.77-.55-3.86-1.74.68-.73,1.17-1.67,1.79-2.47.39-.5,1.13-.69,1.62-1.1,2.81-.08,4.93,1.21,7,2,.8.31,2.14.47,2.42,1.28" transform="translate(-0.98 1.11)" fill="#fff"/><path d="M174.37,257.63c1.26,2-1.54,3.73-2.6,4.86h-.63c-.8-.84-3.21-2.57-3-3.94a21.59,21.59,0,0,1,3.15-.83c.67-.16,1.55.07,2.06-.27a3.37,3.37,0,0,1,1,.18" transform="translate(-0.98 1.11)" fill="#fff"/><path d="M172.76,255.89a1.23,1.23,0,0,1-.18.46c-.7.67-1.8.21-3,.46a11.6,11.6,0,0,1-3.68.18c-.59-.25-.93-.94-1.35-1.37-1.12-1.14-2.19-2.36-3.33-3.48a3.73,3.73,0,0,1,.09-.82,10.07,10.07,0,0,1,1.89-.55c.62-.14,1.28.11,1.71-.19a9.46,9.46,0,0,1,3.32.28,4,4,0,0,1,1.26,1.1,22,22,0,0,1,2.25,2.38c.36.5.6,1.07,1,1.55" transform="translate(-0.98 1.11)" fill="#fff"/><path d="M171.32,230.35a1.45,1.45,0,0,1,.27,1c-.66.89-.81,3.08-1.44,4.12s-2.28,1.61-3.51,1.92c.09.08,0,0,.18.09.43.32.88.28,1.17.73.59.76,0,3.84-.18,4.58a1,1,0,0,1-.81.28,13.58,13.58,0,0,0-1.16-.83,25,25,0,0,1-2.79-2.65c0-1,.55-1,.81-1.65H162.6a3.33,3.33,0,0,1-1.53.18,1.39,1.39,0,0,1-.36-.82c1.16-1.62,1.35-4.09,3.06-5.13,1.14-.7,3.72-1.13,5.12-1.56.58-.17,1.36-.05,1.8-.36a2.64,2.64,0,0,1,.63.09" transform="translate(-0.98 1.11)" fill="#fff"/><path d="M166.82,244.82a4.31,4.31,0,0,1-.27,2.19c-.27.42-.84.34-1,.92a1.65,1.65,0,0,1,.72,1.19c-.7.44-1.62.3-2.61.55s-3.46,1.21-4.4,1l-.33-.08a9.3,9.3,0,0,1-1.86-.76c-.68-.36-1.31-.75-2-1.09-.87-.46-2.77-.75-2.78-2,1-1,2.44-3.09,3.95-3.48.7-.18,1.39.37,1.8.55l3.23,1.46a4.53,4.53,0,0,0,1.44.64v-.18c-.47-.31-.69-.8-1.08-1.19-.09-.92,0-2.44.81-2.75.07-.06.2-.11.27-.18a11.56,11.56,0,0,1,4,3.21" transform="translate(-0.98 1.11)" fill="#fff"/><path d="M164.94,46.42c.87.27,1.71.11,1.79,1.19-1,1.27-1.79,3-3.59,3.47-1.46.37-4.93-.51-6-.82-.65-.19-1.51-.12-1.71-.73s.25-1,.36-1.28a4.81,4.81,0,0,1,1.62-2.57l.81-.27a21,21,0,0,1,6.74,1" transform="translate(-0.98 1.11)" fill="#fff"/><path d="M164.94,229.8a1,1,0,0,0-.18.46,6.28,6.28,0,0,1-6.65.46c-.89-.39-1.81-.42-1.8-1.74a23.52,23.52,0,0,0,1.53-2.38,10.6,10.6,0,0,1,1.53-1.38,3.18,3.18,0,0,1,1.52.28c1.25.58,4,2.6,4.05,4.3" transform="translate(-0.98 1.11)" fill="#fff"/><path d="M160.8,252.87a1.34,1.34,0,0,1,.18.92,7,7,0,0,1-5.39,2.47,2,2,0,0,1-.27-.46c-.32-.54.34-1.13.54-1.46a21.68,21.68,0,0,1,1.13-2,2.59,2.59,0,0,1,.49-.5c.25-.2.56-.27.81-.46a2.22,2.22,0,0,1,.44,0,2.63,2.63,0,0,1,2.07,1.43" transform="translate(-0.98 1.11)" fill="#fff"/><path d="M160.09,233.19c.34.11.41.2.44.64a9.84,9.84,0,0,0-.89,2.29,9.71,9.71,0,0,1-1.17,2c-.93,1.23-6.77,1.22-8.81.73a1.41,1.41,0,0,1-.27-.64c1-1.21,1.78-3.47,3.24-4.12,1.26-.56,3-.48,4.4-.82.48-.12,1.24.06,1.62-.18a3.34,3.34,0,0,1,1.44.09" transform="translate(-0.98 1.11)" fill="#fff"/><path d="M156.76,224.67l.09.28a1.3,1.3,0,0,1,.09.64c-.91.95-1.29,2.38-2.07,3.48s-2.33,1.5-3.68,2.1c-1,.47-2.15,1.12-3.15,1.65-.6.32-1.22.47-1.79.83-.86.53-1.78,1.44-3,1.55-.14-.16-.17-.12-.27-.36-.3-.53.71-3,.9-3.57a10,10,0,0,1,1-2.57c1.11-1.56,4.31-2.83,6.29-3.57l2.34-.64c.32-.08.68,0,.89-.09a8.8,8.8,0,0,1,2.34.27" transform="translate(-0.98 1.11)" fill="#fff"/><path d="M156.4,250.22a1.25,1.25,0,0,1,.27.91c-.23.27-.45.54-.67.83a14,14,0,0,1-3,3.48,2.58,2.58,0,0,1-2.16.18c-1.63-.5-4.39-1.14-5.48-2.2.24-1,2.27-2.54,3.14-2.93.39-.17.92-.13,1.26-.36,2.2,0,4.6-.06,6.65.09" transform="translate(-0.98 1.11)" fill="#fff"/><path d="M154.87,45c.37.61-.81,2.07-1.07,2.47-.42.63-.73,1.35-1.44,1.65a6.26,6.26,0,0,1-3.33.09H147L143.64,49l-.27-.37c-.67-.86.38-4.12.9-4.48.32-.22.76-.24,1.08-.46a28.74,28.74,0,0,1,7,.64c.92.21,2.19-.15,2.51.64" transform="translate(-0.98 1.11)" fill="#fff"/><path d="M153.62,242.34a1.47,1.47,0,0,1,.36,1c-1.14,1.21-3,4.21-5,4.3l-1.43-.64c-.76-.46-1.54-1-2.34-1.46-.63-.33-1.46-.48-1.71-1.19-.42-.72.4-1.16.81-1.38a10.79,10.79,0,0,1,2.25-.73c.74-.17,1.69.09,2.24-.27a20.61,20.61,0,0,1,4.86.36" transform="translate(-0.98 1.11)" fill="#fff"/><path d="M150.56,233.92a1.41,1.41,0,0,1,.18.82c-1,1-2,2.66-3.41,3.21s-3-.17-3-1.47c.07-.09,0,0,.09-.18a25,25,0,0,1,3.68-1.92c.56-.23,1.33-.2,1.8-.55a2.64,2.64,0,0,1,.63.09" transform="translate(-0.98 1.11)" fill="#fff"/><path d="M145.8,247.75c.75.42,1.89.64,2,1.73a10.52,10.52,0,0,1-4.14,2.39,3.26,3.26,0,0,1-2.42-.65,15.52,15.52,0,0,1-4.77-3c0-1.48,1.29-2.4,2.25-2.93l1-.36c2.11-.06,4.59,2,6.11,2.84" transform="translate(-0.98 1.11)" fill="#fff"/><path d="M142,230.9c0,2.19-1.05,5-2.33,5.77s-3.22.85-4.85,1.37-4,1.16-5.66.82v-.18c-.39-.65,1.06-2.54,1.34-3,.43-.72.65-1.48,1.35-1.92.95-.61,2.3-.57,3.51-.92a32.61,32.61,0,0,0,4.13-1.65,7.47,7.47,0,0,0,1.71-.73l.54.09a1.44,1.44,0,0,0,.26.37" transform="translate(-0.98 1.11)" fill="#fff"/><path d="M141.93,44v1.65c-.43.68-.09,1.92-.71,2.38-.86.63-5.44,1-6.92,1.1-1,.06-1.84.4-2.61.09v-.09c-.27-.35-.1-.84,0-1.28.38-1.67.37-2.72,1.53-3.57.41-.3,1-.34,1.44-.64h5.39c.7,0,1.66-.12,1.88.36" transform="translate(-0.98 1.11)" fill="#fff"/><path d="M138.34,229.25c.46.77-.66,1.15-1.08,1.37-1,.54-4.69,2.78-5.48.46-.15-.16-.16-.23-.18-.55,1-1.13,2.53-1.87,3.69-2.84.73,0,2.86,1.06,3.05,1.56" transform="translate(-0.98 1.11)" fill="#fff"/><path d="M138.34,243.53c.07.1,0,.09.09.28-.94,1.16-2.55,3.17-4.13,3.57a5.59,5.59,0,0,1-2.61-.28,25.72,25.72,0,0,0-3.05-.27c-1-.09-2.25.24-2.61-.46-.25-.47.13-1.16.27-1.55A5.66,5.66,0,0,1,128,242c.3-.21.7-.24,1-.46a21.16,21.16,0,0,1,7.27,1c.79.26,1.8.23,2.07,1" transform="translate(-0.98 1.11)" fill="#fff"/><path d="M136.72,250.4a1.1,1.1,0,0,1,.09.64c-1.78,1.29-6.28,3.59-9.25,2.93l-.09-.27c-.37-.6.27-1.6.45-2a5.54,5.54,0,0,1,1.79-2.65c.5-.33,1.2-.31,1.71-.64,1.8-.06,4.92.86,5.3,2" transform="translate(-0.98 1.11)" fill="#fff"/><path d="M133.31,227a1,1,0,0,1,.09.55c-1.53,1.47-4.36,3.39-7.37,2.66-1-.25-2.44.18-3-.55-.69-.88.07-3.05.27-3.76.24-.15.44-.43.71-.55s.76,0,1-.18a16.53,16.53,0,0,1,6.65.83c.6.25,1.39.37,1.62,1" transform="translate(-0.98 1.11)" fill="#fff"/><path d="M130.07,45.23a14.34,14.34,0,0,1-.53,4c-1.76,1-4.63,1.19-6.83,1.74-.72.18-2.16.54-2.61,0s0-2.14.18-2.74c.27-.9.4-1.93,1.08-2.38s1.65-.24,2.51-.46,2-.43,2.88-.64c.59-.15,1.34,0,1.8-.28a1.51,1.51,0,0,1,.9.19c.34.11.4.32.62.55" transform="translate(-0.98 1.11)" fill="#fff"/><path d="M127.92,232.82c1,.25,2,0,2,1.19-1.11,1.18-1.57,3.62-3,4.4a3.68,3.68,0,0,1-2.07-.09c-1.27-.33-5.31-1.09-5.66-2.11-.31-.5.18-1.07.36-1.37a7.35,7.35,0,0,1,1.62-2.2c.32-.24.75-.31,1.08-.55a21,21,0,0,1,5.75.73" transform="translate(-0.98 1.11)" fill="#fff"/><path d="M126.75,249.3a1.22,1.22,0,0,1,.27.73c-.83,1.13-1,3-2.34,3.57-2.05.88-5.92-1.22-7.1-2-.56-.38-1.31-.54-1.43-1.37a20.51,20.51,0,0,1,2-.83c.41-.18.85-.55,1.26-.73s.65-.09.9-.27a16,16,0,0,1,6.47.91" transform="translate(-0.98 1.11)" fill="#fff"/><path d="M125.76,242c.35.45,0,1.18-.18,1.65-.33,1-.32,2.32-.9,3.11-.18.25-.58.34-.81.55-1.89,0-3.87-1.57-3.86-3.39a5.44,5.44,0,0,1,1.8-1.56,18.57,18.57,0,0,0,2.42-.64c.63,0,1.26-.07,1.53.28" transform="translate(-0.98 1.11)" fill="#fff"/><path d="M121.81,228.15a7.23,7.23,0,0,1-.09,2.11c-.23.6-.7.83-1.17,1.19a11.75,11.75,0,0,0-2.25,2.65c-.62,1-1,2.92-2.42,3-1.15-1-2.82-1.31-3.42-2.83s.89-2.73,1.44-3.48a18.2,18.2,0,0,1,4.85-4.49,17,17,0,0,0,1.62-.73,4.71,4.71,0,0,1,1,.09,3.58,3.58,0,0,1,.45.92Z" transform="translate(-0.98 1.11)" fill="#fff"/><path d="M118.12,244c.48.79,1.76,1.81,1.8,2.84a8.38,8.38,0,0,1-1.71,1c-.7.26-1.55.46-2.24.64a1.93,1.93,0,0,1-2.16-1.1c-1-1.44-1.21-3.18-1.71-5.13-.21-.84-1-4.43-.45-5.22.08-.24.16-.26.27-.45a2.83,2.83,0,0,1,2.07.82,6.66,6.66,0,0,1,1.71,1.28c1.09,1.51,1.44,3.69,2.42,5.31" transform="translate(-0.98 1.11)" fill="#fff"/><path d="M118.48,47.15c0,2-.72,4.51-2,5.31-.92.57-2.41.59-3.42,1-.68.28-2.92,1.46-3.5.54a4.79,4.79,0,0,1-.09-2.56c.26-1.21.27-2,1.08-2.56,1.25-.92,3.47-1.31,5-1.83a7.17,7.17,0,0,0,1.7-.46,3.18,3.18,0,0,1,.9.18,1.68,1.68,0,0,0,.27.37" transform="translate(-0.98 1.11)" fill="#fff"/><path d="M112.55,248.2c.69,1.06,2.74,2.56,2.88,3.94-.8.83-1.79,2.1-3.15,2.29a1.73,1.73,0,0,0-.36-.18,7,7,0,0,1,0-6.05Z" transform="translate(-0.98 1.11)" fill="#fff"/><path d="M111.92,229c.21.13.3.45.45.64-.38,1.74-2,3.06-3.14,4.12-2.2.06-4.86-1.74-6.56-2.47-.73-.32-1.8-.34-2.07-1.1-.39-.6.19-.9.63-1.19A15.42,15.42,0,0,1,104,227.6c.45-.17,1-.11,1.43-.36a13.1,13.1,0,0,1,4.14,1,9.78,9.78,0,0,1,2.33.74" transform="translate(-0.98 1.11)" fill="#fff"/><path d="M109.5,250.49c.78,1.29,1,3.93.9,5.77-.82.64-1.43,1.66-2.25,2.29a15.83,15.83,0,0,0-2.16,1.83h-.63c-1-.95-2.52-1.65-2.6-3.48.2-.26.25-.64.45-.91l1.26-1.19,1.61-1.74c.64-.5,1.09-1.18,1.71-1.65a5.59,5.59,0,0,0,1.17-.92Z" transform="translate(-0.98 1.11)" fill="#fff"/><path d="M107.07,50.54c.58,1,.54,3.17.36,4.66a24.56,24.56,0,0,1-4.49,2.29c-1,.45-2,1.19-3.42.92a6.67,6.67,0,0,1-.63-1.65,4.31,4.31,0,0,1,.36-3c.65-.92,4.34-2.39,5.57-2.93a6.69,6.69,0,0,0,1.35-.46,2.68,2.68,0,0,1,.9.19" transform="translate(-0.98 1.11)" fill="#fff"/><path d="M102.85,226.5c-.07.1,0,0-.09.19-1,.6-3.75,2.37-5.48,1.92a13.88,13.88,0,0,1-3.87-2.11c-1-.62-2.58-.87-2.69-2.38a1.73,1.73,0,0,0,.18-.36,12.2,12.2,0,0,1,2.51-1.1c.39-.12,1,0,1.26-.18,2.94-.08,4.78,1.24,6.56,2.38.66.42,1.57.6,1.62,1.64" transform="translate(-0.98 1.11)" fill="#fff"/><path d="M96.65,55.3a10.74,10.74,0,0,1,.27,5.12c-1.78,1.06-3.5,2.27-5.3,3.3-.43.24-1.52.93-2,.27a5.29,5.29,0,0,1-.45-1.74,4.65,4.65,0,0,1-.36-2.47c.26-.79,1.24-1.21,1.89-1.65,1.11-.74,2.35-1.48,3.5-2.19a17.38,17.38,0,0,0,1.8-.83,1.87,1.87,0,0,1,.63.19" transform="translate(-0.98 1.11)" fill="#fff"/><path d="M91.71,140.81c1.08-.35,1.64-1.6,2.33-2.38.32,0,.48-.39.72.09.55.94.85,2.57,1.71,3.2s2.7.76,2.78,1.93c-.82.79-2.33,1.55-2.78,2.65s.46,3.18-1.26,3.21c-.42-.58-2.11-2.17-3.14-2s-1.77.75-2.88.83c-.26-.27-.35-.25-.36-.83A6.67,6.67,0,0,0,90,144.75,8.34,8.34,0,0,1,88.29,141a1.36,1.36,0,0,0,.36-.27c1.07,0,2.08.41,3.06.09" transform="translate(-0.98 1.11)" fill="#fff"/><path d="M93.77,220.74c.11.19,0,.2,0,.45a26,26,0,0,1-4.31,1.47H88.2c-1.64-.47-3.08-1.94-4.4-2.84-.53-.36-2.87-1.58-2.61-2.47.32-1.1,2.7-.62,3.6-1.19,3.52-.09,4.92,1.59,6.92,3,.61.44,1.79.81,2.06,1.56" transform="translate(-0.98 1.11)" fill="#fff"/><path d="M88,63.9a3,3,0,0,1-1.17,2.75,25,25,0,0,1-3.32,2.93,13.14,13.14,0,0,0-2,1.46,2.78,2.78,0,0,1-.81-.09A12.35,12.35,0,0,1,80,69c-1.34-4.63,4.31-6.25,6.37-8.24A3.36,3.36,0,0,1,87,61a30.4,30.4,0,0,1,1,2.93" transform="translate(-0.98 1.11)" fill="#fff"/><path d="M84.16,214.33c-.07.09,0,0-.09.18a10.48,10.48,0,0,1-2.34,1.1,5.46,5.46,0,0,1-2.51,0c-1.85-.62-4.3-3.15-5.48-4.58l.17-.55a14.79,14.79,0,0,1,2.16-.73c.47-.12,1.08.05,1.44-.18,2.84,0,3.65,1.63,5.21,2.84.6.46,1.37.93,1.44,1.92" transform="translate(-0.98 1.11)" fill="#fff"/><path d="M79.13,71.41a2.9,2.9,0,0,1-.9,2.47,27.47,27.47,0,0,1-3.06,3.39c-.69.71-1.66,2.41-2.87,2.2-.4-.88-1.5-3.52-1.17-4.86a6.29,6.29,0,0,1,2.07-2.83c1.43-1.46,2.86-2.86,4.4-4.22a.65.65,0,0,1,.45.28c.29.4.16,1.25.36,1.74a12.7,12.7,0,0,1,.72,1.83" transform="translate(-0.98 1.11)" fill="#fff"/><path d="M75.35,205.17c.64.65,1.65,1.27,1.8,2.38-.83.79-2.78.9-4.31.92a5,5,0,0,1-1.8-.09c-.76-.39-2.49-2.7-3.06-3.48s-1.55-1.2-1.34-2.38a2.14,2.14,0,0,1,.63-.19c.14-.09.57-.08.71-.18a13.64,13.64,0,0,1,3.69.09c1.41.48,2.71,1.94,3.68,2.93" transform="translate(-0.98 1.11)" fill="#fff"/><path d="M69.69,76c.47.73,2,3.62,1.62,4.94-.41,1.49-1.7,2.56-2.52,3.66-.51.7-1.26,2.37-2.33,2.38a10.27,10.27,0,0,1-2.07-3.47A3,3,0,0,1,65.11,81a36,36,0,0,1,4-5Z" transform="translate(-0.98 1.11)" fill="#fff"/><path d="M68.43,197.12c.36.38,1.95,1.94,1.53,2.65-.31.52-3.37,1.23-4.49.92-1.76-.5-3.11-3-4-4.49a3.1,3.1,0,0,1-.9-2,.61.61,0,0,1,.63-.37c1.89,0,4.3,0,5.48.82.77.54,1.15,1.78,1.79,2.48" transform="translate(-0.98 1.11)" fill="#fff"/><path d="M63.13,84.32c.6,1.27,2.18,3.5,2.25,5a23.67,23.67,0,0,0-1.26,2.2c-.55.89-1.25,1.78-1.8,2.66-.35.57-.6,1.49-1.25,1.74-.44.26-.81-.18-1-.46-.59-.89-.89-1.9-1.44-2.84a1.73,1.73,0,0,1-.45-1.46,8.46,8.46,0,0,1,1.08-1.84c.71-1.17,1.26-2.31,2-3.47.35-.58.88-1.1,1.25-1.65a2.64,2.64,0,0,1,.63.09" transform="translate(-0.98 1.11)" fill="#fff"/><path d="M62.59,188.51c.5.8,1.39,1.43,1.44,2.65-.92.62-4.52.66-5.48,0s-1.59-2.26-2.16-3.38c-.4-.79-1.41-1.85-1-2.84a.28.28,0,0,1,.26-.09c2.29,0,4.89,0,5.84,1.37.48.68.65,1.59,1.08,2.29" transform="translate(-0.98 1.11)" fill="#fff"/><path d="M59.63,97.78a2.45,2.45,0,0,1-.36,1.55,32.42,32.42,0,0,1-1.44,3.48c-.36.72-.7,2.26-1.44,2.57s-.94-.45-1.16-.83c-.52-.84-2.27-2.34-1.89-3.84a20.1,20.1,0,0,1,3.5-7.24h.45a18.18,18.18,0,0,1,2.34,4.31" transform="translate(-0.98 1.11)" fill="#fff"/><path d="M58.1,179.9c.49.83,1.33,1.68,1.09,2.92-.47.12-1.12.44-1.63.56-3.69.87-4.59-2.21-5.48-4.3-.37-.86-1.19-1.72-1-2.84a.82.82,0,0,1,.72-.37c4.81,0,4.53,1.08,6.29,4" transform="translate(-0.98 1.11)" fill="#fff"/><path d="M55.14,107.67a2.66,2.66,0,0,1,.27,1.55l-1.17,2.66c-.36,1-.43,3.13-1.62,3.2-1.09-1.14-2.61-2.38-3.06-4.12a3.45,3.45,0,0,1,.27-1.83c.54-1.94.91-4.17,2.07-5.49a.78.78,0,0,1,.45.09c.83.29,2.41,3,2.79,3.94" transform="translate(-0.98 1.11)" fill="#fff"/><path d="M54.42,170.93c.27.75,1.3,2.76.45,3.39s-2.4,0-3.06-.19-.89-.09-1.26-.36a4.47,4.47,0,0,1-1.17-2.11c-.56-1.37-1.59-3.47-1.61-5.22l.54-.45c1.95,0,4.25.69,5,1.92a15.62,15.62,0,0,1,1.08,3" transform="translate(-0.98 1.11)" fill="#fff"/><path d="M51.54,160.86a7.65,7.65,0,0,1,.63,3.84,1.65,1.65,0,0,0-.36.28c-2.31.11-4.3-.87-5-2.66a22.24,22.24,0,0,1-.72-3c-.27-1-.82-2.67-.27-3.66a3.69,3.69,0,0,1,1.8.64,14.28,14.28,0,0,1,1.88.55c1.26.79,1.57,2.44,2.07,4" transform="translate(-0.98 1.11)" fill="#fff"/><path d="M48.76,113.43c1.06,1.58,3.89,3.26,3.14,6.5-.1.46-.25,1.19-.36,1.65-.29,1.23,0,2.82-1.44,2.84a14.33,14.33,0,0,1-3.05-3.48,4.06,4.06,0,0,1-.18-2.1c.38-1.69.61-4.06,1.44-5.41Z" transform="translate(-0.98 1.11)" fill="#fff"/><path d="M50.37,127.81a5.71,5.71,0,0,1-.27,2.29v1.19c-.23,1.07-.3,2.3-.54,3.29a1.23,1.23,0,0,1-.89.37c-1.17-1.1-2.76-1.87-3.42-3.48s.2-6.29.54-7.78c.16-.06.09,0,.18-.09a.71.71,0,0,1,.45.09c1,.33,2.13,2.08,2.87,2.84.36.35.92.75,1.08,1.28" transform="translate(-0.98 1.11)" fill="#fff"/><path d="M49.2,147.68a16,16,0,0,1,1,6.95c-.27.19-.26.32-.72.37-.49.23-1.55-.36-2-.55a4.32,4.32,0,0,1-1.71-.92c-1.33-1.62-1.49-5.28-1.35-8.05a2,2,0,0,0,.45-.37,7.85,7.85,0,0,1,4.31,2.57" transform="translate(-0.98 1.11)" fill="#fff"/><path d="M49.47,138.25c0,2,.22,4.94-.35,6.4a1.45,1.45,0,0,0-.36.28,13.59,13.59,0,0,1-4.32-2.56c-.11-2.33-.36-5.62.09-7.79a.85.85,0,0,0,.27-.18c1.25.17,3.78,3,4.67,3.85" transform="translate(-0.98 1.11)" fill="#fff"/></g><g id="Laag_2" data-name="Laag 2"><text transform="translate(196.53 262.04) rotate(-29.96)" font-size="39.06" fill="#fff" font-family="Humanist531BT-BlackA, Humanst531 Blk BT" font-weight="800">S</text><text transform="translate(218.61 249.01) rotate(-41.52)" font-size="39.06" fill="#fff" font-family="Humanist531BT-BlackA, Humanst531 Blk BT" font-weight="800">n</text><text transform="translate(238.92 230.44) rotate(-53.02)" font-size="39.06" fill="#fff" font-family="Humanist531BT-BlackA, Humanst531 Blk BT" font-weight="800">e</text><text transform="translate(253.89 210.03) rotate(-64.06)" font-size="39.06" fill="#fff" font-family="Humanist531BT-BlackA, Humanst531 Blk BT" font-weight="800">e</text><text transform="translate(264.79 187) rotate(-75.53)" font-size="39.06" fill="#fff" font-family="Humanist531BT-BlackA, Humanst531 Blk BT" font-weight="800">k</text><text transform="translate(270.42 162.36) rotate(-82.26)" font-size="16.09" fill="#fff" font-family="MyriadPro-Regular, Myriad Pro"> </text><text transform="matrix(0.97, 0.23, -0.23, 0.97, 107.31, 269.68)" font-size="11" fill="#fff" font-family="Humanist531BT-BlackA, Humanst531 Blk BT" font-weight="800">S</text><text transform="translate(113.58 271.14) rotate(11.21)" font-size="11" fill="#fff" font-family="Humanist531BT-BlackA, Humanst531 Blk BT" font-weight="800">i</text><text transform="translate(116.85 271.82) rotate(8.95)" font-size="11" fill="#fff" font-family="Humanist531BT-BlackA, Humanst531 Blk BT" font-weight="800">n</text><text transform="matrix(0.99, 0.1, -0.1, 0.99, 123.79, 272.9)" font-size="11" fill="#fff" font-family="Humanist531BT-BlackA, Humanst531 Blk BT" font-weight="800">d</text><text transform="translate(130.74 273.59) rotate(3.24)" font-size="11" fill="#fff" font-family="Humanist531BT-BlackA, Humanst531 Blk BT" font-weight="800">s</text><text transform="translate(135.87 273.87) rotate(1.36)" font-size="11" fill="#fff" font-family="Humanist531BT-BlackA, Humanst531 Blk BT" font-weight="800"> </text><text transform="translate(139.47 273.98) rotate(-0.93)" font-size="11" fill="#fff" font-family="Humanist531BT-BlackA, Humanst531 Blk BT" font-weight="800">1</text><text transform="matrix(1, -0.07, 0.07, 1, 146.54, 273.87)" font-size="11" fill="#fff" font-family="Humanist531BT-BlackA, Humanst531 Blk BT" font-weight="800">9</text><text transform="translate(153.62 273.37) rotate(-7.05)" font-size="11" fill="#fff" font-family="Humanist531BT-BlackA, Humanst531 Blk BT" font-weight="800">3</text><text transform="translate(160.64 272.49) rotate(-10.15)" font-size="11" fill="#fff" font-family="Humanist531BT-BlackA, Humanst531 Blk BT" font-weight="800">5</text><text transform="matrix(0.98, -0.22, 0.22, 0.98, 167.55, 271.22)" font-size="16.09" fill="#fff" font-family="MyriadPro-Regular, Myriad Pro"> </text><text transform="translate(9.19 151.12) rotate(80.51)" font-size="39.06" fill="#fff" font-family="CooperBlack, Cooper Black">T</text><text transform="translate(15.15 181.19) rotate(69.98)" font-size="39.06" fill="#fff" font-family="CooperBlack, Cooper Black">i</text><text transform="matrix(0.5, 0.87, -0.87, 0.5, 20.73, 197.1)" font-size="39.06" fill="#fff" font-family="CooperBlack, Cooper Black">b</text><text transform="matrix(0.66, 0.75, -0.75, 0.66, 35.13, 221.22)" font-size="39.06" fill="#fff" font-family="CooperBlack, Cooper Black">r</text><text transform="matrix(0.78, 0.62, -0.62, 0.78, 50.85, 238.91)" font-size="39.06" fill="#fff" font-family="CooperBlack, Cooper Black">a</text><text transform="matrix(0.89, 0.46, -0.46, 0.89, 71.02, 254.46)" font-size="39.06" fill="#fff" font-family="CooperBlack, Cooper Black">g</text><text transform="translate(93.14 265.04) rotate(20.55)" font-size="16.09" fill="#fff" font-family="MyriadPro-Regular, Myriad Pro"> </text><text transform="matrix(0.06, 1, 1, -0.06, 271.08, 126.02)" font-size="36" fill="#fff" font-family="NemesisGrant, Nemesis Grant">-</text><text transform="matrix(-0.12, 0.99, -0.99, -0.12, 11.67, 118.14)" font-size="36" fill="#fff" font-family="NemesisGrant, Nemesis Grant">-</text><text transform="matrix(0.35, -0.94, 0.94, 0.35, 36.85, 117.03)" font-size="43" fill="#fff" font-family="LagunaRegular-Regular, Laguna Regular">S</text><text transform="translate(45.01 95.09) rotate(-57.01)" font-size="43" fill="#fff" font-family="LagunaRegular-Regular, Laguna Regular">C</text><text transform="translate(56.96 76.3) rotate(-44.97)" font-size="43" fill="#fff" font-family="LagunaRegular-Regular, Laguna Regular">O</text><text transform="translate(73.12 59.89) rotate(-32.56)" font-size="43" fill="#fff" font-family="LagunaRegular-Regular, Laguna Regular">U</text><text transform="translate(92.5 47.41) rotate(-20.71)" font-size="43" fill="#fff" font-family="LagunaRegular-Regular, Laguna Regular">T</text><text transform="translate(112.54 40.16) rotate(-12.14)" font-size="43" fill="#fff" font-family="LagunaRegular-Regular, Laguna Regular">I</text><text transform="translate(122.85 37.31) rotate(-2.9)" font-size="43" fill="#fff" font-family="LagunaRegular-Regular, Laguna Regular">N</text><text transform="matrix(0.99, 0.16, -0.16, 0.99, 146.23, 36.01)" font-size="43" fill="#fff" font-family="LagunaRegular-Regular, Laguna Regular">G</text><text transform="translate(168.51 39.5) rotate(21.5)" font-size="43" fill="#fff" font-family="LagunaRegular-Regular, Laguna Regular">G</text><text transform="translate(189.58 47.58) rotate(33.88)" font-size="43" fill="#fff" font-family="LagunaRegular-Regular, Laguna Regular">R</text><text transform="matrix(0.69, 0.72, -0.72, 0.69, 208.81, 60.28)" font-size="43" fill="#fff" font-family="LagunaRegular-Regular, Laguna Regular">O</text><text transform="translate(224.83 76.9) rotate(57.68)" font-size="43" fill="#fff" font-family="LagunaRegular-Regular, Laguna Regular">E</text><text transform="matrix(0.35, 0.94, -0.94, 0.35, 235.98, 93.93)" font-size="43" fill="#fff" font-family="LagunaRegular-Regular, Laguna Regular">P</text><text transform="translate(243.8 116.61) rotate(76.51)" font-size="13.04" fill="#fff" font-family="MyriadPro-Regular, Myriad Pro"> </text></g></svg>